<?xml version="1.0" standalone="no"?><!DOCTYPE svg PUBLIC "-//W3C//DTD SVG 1.1//EN" "http://www.w3.org/Graphics/SVG/1.1/DTD/svg11.dtd"><svg class="icon" width="200px" height="200.00px" viewBox="0 0 1024 1024" version="1.1" xmlns="http://www.w3.org/2000/svg"><path fill="#000000" d="M911.9 431.5L857 185.9c-2.1-9.5-9.5-16.8-18.9-18.9l-245.6-54.9c-8.4-1.9-17.1 0.7-23.1 6.7L118.8 569.3c-9.8 9.8-9.8 25.6 0 35.4l300.5 300.5c4.9 4.9 11.3 7.3 17.7 7.3s12.8-2.4 17.7-7.3l450.5-450.5c6-6.1 8.6-14.8 6.7-23.2zM455.4 763.6c-4.9 4.9-11.3 7.3-17.7 7.3-6.4 0-12.8-2.4-17.7-7.3L260.4 604c-9.8-9.8-9.8-25.6 0-35.4s25.6-9.8 35.4 0l159.6 159.6c9.7 9.8 9.7 25.6 0 35.4z m195-297c-56.6 0-102.6-46-102.6-102.6s46-102.6 102.6-102.6c56.6 0 102.6 46 102.6 102.6s-46 102.6-102.6 102.6z"  /><path fill="#000000" d="M650.4 311.4c-29 0-52.6 23.6-52.6 52.6s23.6 52.6 52.6 52.6S703 393 703 364s-23.6-52.6-52.6-52.6z"  /></svg>