<?xml version="1.0" standalone="no"?><!DOCTYPE svg PUBLIC "-//W3C//DTD SVG 1.1//EN" "http://www.w3.org/Graphics/SVG/1.1/DTD/svg11.dtd"><svg class="icon" width="200px" height="199.80px" viewBox="0 0 1025 1024" version="1.1" xmlns="http://www.w3.org/2000/svg"><path fill="#e6e6e6" d="M556.301 112.039a119.63 119.63 0 0 1 86.483-35.024l208.185 3.292c64.59 1.022 116.702 53.135 117.724 117.724l3.292 208.185a119.63 119.63 0 0 1-35.024 86.483L504.7 924.96c-46.719 46.719-122.464 46.719-169.183 0L124.04 713.484c-46.719-46.719-46.719-122.464 0-169.183z m147.353 96.075c-69.882 0-126.532 56.65-126.532 126.532 0 69.881 56.65 126.531 126.532 126.531 69.881 0 126.531-56.65 126.531-126.531 0-69.882-56.65-126.532-126.531-126.532z m0 59.815c36.846 0 66.716 29.87 66.716 66.717 0 36.846-29.87 66.716-66.716 66.716-36.847 0-66.717-29.87-66.717-66.716 0-36.847 29.87-66.717 66.717-66.717z"  /></svg>