<?xml version="1.0" standalone="no"?><!DOCTYPE svg PUBLIC "-//W3C//DTD SVG 1.1//EN" "http://www.w3.org/Graphics/SVG/1.1/DTD/svg11.dtd"><svg class="icon" width="200px" height="200.00px" viewBox="0 0 1024 1024" version="1.1" xmlns="http://www.w3.org/2000/svg"><path fill="#333333" d="M44.939533 1012.216016a43.335582 43.335582 0 0 1-43.111607-47.80786l45.091258-436.527594a43.400607 43.400607 0 0 1 12.86051-26.595245L558.333959 15.345911A43.371707 43.371707 0 0 1 588.592281 3.041727h0.556326a43.378932 43.378932 0 0 1 30.489522 13.09171l392.447837 402.64232a43.350032 43.350032 0 0 1-0.7803 61.296945l-498.554265 485.961081a43.393382 43.393382 0 0 1-26.913145 12.181358l-437.546321 33.870825a43.321132 43.321132 0 0 1-3.352402 0.13005z m86.598913-459.799336l-38.133578 369.219445 370.079221-28.654371 456.259085-444.735201-331.938418-340.557849-456.26631 444.727976z"  /><path fill="#333333" d="M604.631793 422.142609m-67.965625 0a67.965625 67.965625 0 1 0 135.93125 0 67.965625 67.965625 0 1 0-135.93125 0Z"  /></svg>