<?xml version="1.0" standalone="no"?><!DOCTYPE svg PUBLIC "-//W3C//DTD SVG 1.1//EN" "http://www.w3.org/Graphics/SVG/1.1/DTD/svg11.dtd"><svg class="icon" width="200px" height="200.00px" viewBox="0 0 1024 1024" version="1.1" xmlns="http://www.w3.org/2000/svg"><path d="M510.3 706.4c-106.1 0-192.5-86.4-192.5-192.5s86.4-192.5 192.5-192.5 192.5 86.4 192.5 192.5-86.3 192.5-192.5 192.5z m0-384c-105.6 0-191.5 85.9-191.5 191.5s85.9 191.5 191.5 191.5 191.5-85.9 191.5-191.5-85.9-191.5-191.5-191.5z" fill="#CCCCCC" /><path d="M846.5 531.6l-17-269.7c-1.6-24.8-20.7-44.8-45.4-47.5l-271.9-29.3c-15-1.6-30 3.5-40.9 14l-350.2 338c-20.3 19.6-20.8 51.8-1.3 72.1l288.7 299.2c19.6 20.3 51.8 20.8 72.1 1.3L831 571.5c10.8-10.4 16.5-25 15.5-39.9z m-197.6-17.4c-35.6 34.3-92.2 33.3-126.5-2.2-34.3-35.6-33.3-92.2 2.2-126.5s92.2-33.3 126.5 2.2c34.4 35.6 33.3 92.2-2.2 126.5z" fill="#263554" /></svg>