<?xml version="1.0" standalone="no"?><!DOCTYPE svg PUBLIC "-//W3C//DTD SVG 1.1//EN" "http://www.w3.org/Graphics/SVG/1.1/DTD/svg11.dtd"><svg class="icon" width="200px" height="200.00px" viewBox="0 0 1024 1024" version="1.1" xmlns="http://www.w3.org/2000/svg"><path d="M206 192v240h240V192H206z m-18-36h276c9.941 0 18 8.059 18 18v276c0 9.941-8.059 18-18 18H188c-9.941 0-18-8.059-18-18V174c0-9.941 8.059-18 18-18zM206 594v240h240V594H206z m-18-36h276c9.941 0 18 8.059 18 18v276c0 9.941-8.059 18-18 18H188c-9.941 0-18-8.059-18-18V576c0-9.941 8.059-18 18-18z" /><path d="M578 192v240h240V192H578z m-18-36h276c9.941 0 18 8.059 18 18v276c0 9.941-8.059 18-18 18H560c-9.941 0-18-8.059-18-18V174c0-9.941 8.059-18 18-18z" /><path d="M578 594v240h240V594H578z m-18-36h276c9.941 0 18 8.059 18 18v276c0 9.941-8.059 18-18 18H560c-9.941 0-18-8.059-18-18V576c0-9.941 8.059-18 18-18z"/></svg>