<?xml version="1.0" standalone="no"?><!DOCTYPE svg PUBLIC "-//W3C//DTD SVG 1.1//EN" "http://www.w3.org/Graphics/SVG/1.1/DTD/svg11.dtd"><svg class="icon" width="200px" height="200.00px" viewBox="0 0 1024 1024" version="1.1" xmlns="http://www.w3.org/2000/svg"><path fill="#333333" d="M448.1 926.8H250.9c-68.2 0-123.8-55.5-123.8-123.8V223.4c0-68.2 55.5-123.8 123.8-123.8h458.4c68.2 0 123.8 55.5 123.8 123.8v224.8c0 8.3-6.7 15-15 15s-15-6.7-15-15V223.4c0-51.7-42.1-93.8-93.8-93.8H250.9c-51.7 0-93.8 42.1-93.8 93.8v579.7c0 51.7 42.1 93.8 93.8 93.8h197.2c8.3 0 15 6.7 15 15s-6.7 14.9-15 14.9z"  /><path fill="#333333" d="M693 304H267c-8.3 0-15-6.7-15-15s6.7-15 15-15h426c8.3 0 15 6.7 15 15s-6.7 15-15 15zM602 447.5H267c-8.3 0-15-6.7-15-15s6.7-15 15-15h335c8.3 0 15 6.7 15 15s-6.7 15-15 15zM513 591H267c-8.3 0-15-6.7-15-15s6.7-15 15-15h246c8.3 0 15 6.7 15 15s-6.7 15-15 15zM533.8 921.8c-4 0-7.8-1.6-10.6-4.4-3-3-4.5-7-4.4-11.2 0.1-1.2 1.3-29 4.2-58.9 5.6-57.3 12.4-71.1 18.8-77.6l231.9-231.9c9.8-9.8 24.1-14.5 39.1-12.8 14 1.6 27.7 8.3 38.4 19l45.6 45.6c10.7 10.7 17.5 24.4 19 38.4 1.7 15.1-3 29.3-12.8 39.1l-231.8 232c-6.5 6.5-20.3 13.2-77.8 18.7-30.1 2.9-57.9 4-59.1 4.1-0.1-0.1-0.3-0.1-0.5-0.1z m29.7-131.4c-1.1 1.9-6.2 13.2-10.9 62.6-1.4 14.2-2.3 27.9-2.9 38 10.1-0.6 23.9-1.5 38.1-2.8 49.4-4.6 60.8-9.7 62.7-10.8L881.9 646c4.6-4.6 4.6-11.1 4.2-14.6-0.8-7.2-4.6-14.7-10.4-20.5L830 565.3c-5.8-5.8-13.3-9.6-20.5-10.4-3.5-0.4-10.1-0.4-14.6 4.2L563.5 790.4z m0.2-0.2z"  /><path fill="#333333" d="M866.8 697.3c-3.7 0-7.5-1.4-10.4-4.2L746.3 586.8c-6-5.8-6.1-15.2-0.4-21.2 5.8-6 15.2-6.1 21.2-0.4l110.1 106.3c6 5.8 6.1 15.2 0.4 21.2-3 3.1-6.9 4.6-10.8 4.6z"  /></svg>