<?xml version="1.0" standalone="no"?><!DOCTYPE svg PUBLIC "-//W3C//DTD SVG 1.1//EN" "http://www.w3.org/Graphics/SVG/1.1/DTD/svg11.dtd"><svg class="icon" width="200px" height="200.00px" viewBox="0 0 1024 1024" version="1.1" xmlns="http://www.w3.org/2000/svg"><path fill="#333333" d="M511.04 876.563c-10.11 0-19.561-5.154-25.153-13.603L403.245 738H256.908c-51.56 0-100.137-20.01-136.48-56.5C84.148 645.072 64 596.694 64 545.122v-288.07c0-51.572 20.148-100.036 56.428-136.465C156.771 84.097 205.348 64 256.908 64h508.269C871.889 64 959 150.603 959 257.052v288.069C959 651.57 871.889 738 765.176 738H612.817l-76.064 124.085c-5.388 8.785-14.889 14.253-25.193 14.431-0.173 0.002-0.347 0.047-0.52 0.047zM256.908 125C183.987 125 125 183.868 125 257.052v288.069C125 618.305 183.987 678 256.908 678h162.546c10.122 0 19.569 4.998 25.154 13.439l65.467 98.884 60.145-97.989c5.485-8.943 15.221-14.334 25.712-14.334h169.243C838.624 678 898 618.305 898 545.122v-288.07C898 183.868 838.624 125 765.176 125H256.908z"  /><path fill="#333333" d="M350.417 397.295m-70.139 0a70.139 70.139 0 1 0 140.278 0 70.139 70.139 0 1 0-140.278 0Z"  /><path fill="#333333" d="M671.667 397.295m-70.139 0a70.139 70.139 0 1 0 140.278 0 70.139 70.139 0 1 0-140.278 0Z"  /></svg>