<?xml version="1.0" standalone="no"?><!DOCTYPE svg PUBLIC "-//W3C//DTD SVG 1.1//EN" "http://www.w3.org/Graphics/SVG/1.1/DTD/svg11.dtd"><svg class="icon" width="200px" height="175.79px" viewBox="0 0 1165 1024" version="1.1" xmlns="http://www.w3.org/2000/svg"><path fill="#333333" d="M847.482174 0a52.965517 52.965517 0 0 1 45.903448 26.482759l264.827586 459.034482a52.965517 52.965517 0 0 1 0 52.965518l-264.827586 459.034482A52.965517 52.965517 0 0 1 847.482174 1024H317.827001a52.965517 52.965517 0 0 1-45.903448-26.482759l-264.827586-459.034482a52.965517 52.965517 0 0 1 0-52.965518l264.827586-459.034482A52.965517 52.965517 0 0 1 317.827001 0h529.655173zM582.654588 776.827586a44.137931 44.137931 0 1 0 0-88.275862c-97.509517 0-176.551724-79.042207-176.551725-176.551724s79.042207-176.551724 176.551725-176.551724 176.551724 79.042207 176.551724 176.551724a44.137931 44.137931 0 1 0 88.275862 0c0-146.255448-118.572138-264.827586-264.827586-264.827586-146.255448 0-264.827586 118.572138-264.827587 264.827586 0 146.255448 118.572138 264.827586 264.827587 264.827586z"  /></svg>